<?xml version="1.0" encoding="UTF-8"?>
<svg id="Livello_1" data-name="Livello 1" xmlns="http://www.w3.org/2000/svg" viewBox="0 0 417.02 297.83">
  <defs>
    <style>
      .cls-1 {
        fill: #fff;
      }

      .cls-2 {
        fill: none;
      }
    </style>
  </defs>
  <rect class="cls-2" width="417.02" height="297.83"/>
  <path class="cls-1" d="M138.33,41.76l55.68,55.97v51.33l-26.1,26.1H62.93l8.41,8.12v64.96h-30.16l-26.68-26.39v-102.95h123.54v-4.06l-9.57-9.86H40.6l-26.1-26.1v-37.12h123.83ZM190.82,147.61v-48.72l-53.94-53.65H17.98v32.19l24.07,24.36h87.87l11.6,11.6v8.99H17.98v98.02l24.65,24.36h25.23v-60.03l-13.05-13.05h111.65l24.36-24.07Z"/>
  <path class="cls-1" d="M288.55,192.27h59.16l36.54,36.54v19.43h-135.14l-26.1-26.39V84.68h20.88l35.09,35.09v62.93l9.57,9.57ZM380.77,244.76v-14.5l-34.22-34.51h-59.45l-11.6-11.6v-63.22l-33.06-32.77h-15.95v132.53l23.78,24.07h130.5ZM376.42,42.05l26.1,26.1v133.98h-20.88l-35.09-34.8v-45.24l-24.07-24.36h-44.95l-35.38-35.38v-20.3h134.27ZM399.04,198.94V69.6l-24.07-24.36h-129.63v15.66l33.64,33.64h44.95l26.1,26.1v45.24l33.06,33.06h15.95ZM328.28,132.24v40.31h-27.84l-5.22-4.93v-45.24h23.2l9.86,9.86ZM325.09,169.07v-35.38l-8.12-8.12h-18.27v40.6l2.9,3.19,23.49-.29Z"/>
</svg>