<?xml version="1.0" standalone="no"?>
<!DOCTYPE svg PUBLIC "-//W3C//DTD SVG 20010904//EN"
 "http://www.w3.org/TR/2001/REC-SVG-20010904/DTD/svg10.dtd">
<svg version="1.0" xmlns="http://www.w3.org/2000/svg"
 width="3071.000000pt" height="2304.000000pt" viewBox="0 0 3071.000000 2304.000000"
 preserveAspectRatio="xMidYMid meet">

<g transform="translate(0.000000,2304.000000) scale(0.100000,-0.100000)"
fill="#000000" stroke="none">
<path d="M150 11621 c0 -3581 4 -6512 8 -6515 5 -3 2235 2222 4958 4945 l4949
4949 -1948 0 c-1071 0 -1947 3 -1947 8 0 4 377 384 838 845 l837 837 6153 0
c3383 0 6152 -3 6152 -7 0 -5 -377 -385 -837 -845 l-838 -838 -1396 0 -1395 0
-4972 -4972 -4971 -4973 3292 -3 3292 -2 4980 4980 4980 4980 550 0 550 0
-4973 -4973 c-2734 -2734 -4972 -4975 -4972 -4980 0 -4 1243 -7 2763 -7 l2762
0 5803 5803 c3191 3191 5802 5805 5802 5810 0 4 -2101 7 -4670 7 -2568 0
-4670 4 -4670 8 0 6 348 331 1499 1399 l56 52 -11317 1 -11318 0 0 -6509z"/>
</g>
</svg>
